# xmcd
#
# Track frame offsets: 
#        150
#        27790
#        72257
#        105692
#        143207
#        176320
#        208595
#        241960
#
# Disc length: 3689 seconds
#
# Revision: 1
# Processed by: cddbd v1.5.2PL0 Copyright (c) Steve Scherf et al.
# Submitted via: ExactAudioCopy v0.99pb3
#
DISCID=680e6708
DTITLE=Various Artist - Top Jazz'99 -Musica Jazz CD(2000)
DYEAR=2000
DGENRE=Jazz
TTITLE0=Roscoe Mitchel: For Lester B
TTITLE1=Enrico Rava - Paolo Fresu: My Funny Valentine
TTITLE2=Doctor 3: Song #1 - Medley: Danny Boy - Bye Bye Blackbird
TTITLE3=Mingus Big Band: Haitian Fight Song
TTITLE4=Davide Penta: Lalu
TTITLE5=Uri Caine: Symphony No.5, Funeral March
TTITLE6=Fasoli-Rava-D'andrea: Theme For Jessica
TTITLE7=Duke Ellington: Mood Indigo - hot And Bothered - Creole Love C
TTITLE7=all
EXTD=YEAR: 2000
EXTT0=
EXTT1=
EXTT2=
EXTT3=
EXTT4=
EXTT5=
EXTT6=
EXTT7=
PLAYORDER=
